<mxfile host="app.diagrams.net" agent="Mozilla/5.0 (Windows NT 10.0; Win64; x64) AppleWebKit/537.36 (KHTML, like Gecko) Chrome/134.0.0.0 Safari/537.36 Edg/134.0.0.0" version="26.2.2">
  <diagram name="Top Jaringan Kost" id="jgIykUG0UuW3-U6Ky0mu">
    <mxGraphModel dx="2398" dy="1345" grid="1" gridSize="10" guides="1" tooltips="1" connect="1" arrows="1" fold="1" page="1" pageScale="1" pageWidth="850" pageHeight="1100" math="0" shadow="0">
      <root>
        <mxCell id="0" />
        <mxCell id="1" parent="0" />
        <mxCell id="9seqvZQqqgPPie_HJ70S-1" value="" style="group" vertex="1" connectable="0" parent="1">
          <mxGeometry x="180" y="70" width="490" height="871" as="geometry" />
        </mxCell>
        <mxCell id="tLKNI8qHFX3cuUReKvDi-31" value="" style="rounded=1;whiteSpace=wrap;html=1;dashed=1;strokeWidth=2;perimeterSpacing=10;glass=0;shadow=0;movable=1;resizable=1;rotatable=1;deletable=1;editable=1;locked=0;connectable=1;textShadow=1;labelBorderColor=none;" parent="9seqvZQqqgPPie_HJ70S-1" vertex="1">
          <mxGeometry x="280" y="703" width="200" height="157" as="geometry" />
        </mxCell>
        <mxCell id="tLKNI8qHFX3cuUReKvDi-30" value="" style="rounded=1;whiteSpace=wrap;html=1;dashed=1;strokeWidth=2;perimeterSpacing=10;glass=0;shadow=0;movable=1;resizable=1;rotatable=1;deletable=1;editable=1;locked=0;connectable=1;textShadow=1;" parent="9seqvZQqqgPPie_HJ70S-1" vertex="1">
          <mxGeometry y="703" width="200" height="157" as="geometry" />
        </mxCell>
        <mxCell id="tLKNI8qHFX3cuUReKvDi-5" value="" style="fontColor=#0066CC;verticalAlign=top;verticalLabelPosition=bottom;labelPosition=center;align=center;html=1;outlineConnect=0;fillColor=#CCCCCC;strokeColor=#6881B3;gradientColor=none;gradientDirection=north;strokeWidth=2;shape=mxgraph.networks.router;shadow=1;textShadow=1;" parent="9seqvZQqqgPPie_HJ70S-1" vertex="1">
          <mxGeometry x="330" y="751" width="100" height="30" as="geometry" />
        </mxCell>
        <mxCell id="tLKNI8qHFX3cuUReKvDi-19" value="Topology Jaringan Kost" style="text;strokeColor=none;fillColor=none;html=1;fontSize=24;fontStyle=1;verticalAlign=middle;align=center;textShadow=1;" parent="9seqvZQqqgPPie_HJ70S-1" vertex="1">
          <mxGeometry x="92.75" width="285.5" height="40" as="geometry" />
        </mxCell>
        <mxCell id="tLKNI8qHFX3cuUReKvDi-27" value="" style="sketch=0;html=1;aspect=fixed;strokeColor=none;shadow=1;fillColor=#3B8DF1;verticalAlign=top;labelPosition=center;verticalLabelPosition=bottom;shape=mxgraph.gcp2.cloud_computer;textShadow=1;" parent="9seqvZQqqgPPie_HJ70S-1" vertex="1">
          <mxGeometry x="50" y="722" width="100" height="88" as="geometry" />
        </mxCell>
        <mxCell id="tLKNI8qHFX3cuUReKvDi-28" value="PC Server&amp;nbsp;&lt;div&gt;&lt;b&gt;IP: 192.168.20.5&lt;/b&gt;&lt;/div&gt;" style="text;html=1;align=center;verticalAlign=middle;resizable=0;points=[];autosize=1;strokeColor=none;fillColor=none;textShadow=1;" parent="9seqvZQqqgPPie_HJ70S-1" vertex="1">
          <mxGeometry x="45" y="810" width="110" height="40" as="geometry" />
        </mxCell>
        <mxCell id="tLKNI8qHFX3cuUReKvDi-29" value="OpenWRT&amp;nbsp;&lt;div&gt;&lt;b&gt;IP:&lt;span style=&quot;white-space: pre;&quot;&gt;&#x9;&lt;/span&gt;192.168.20.2&lt;br&gt;LAN:192.168.77.1&lt;/b&gt;&lt;/div&gt;" style="text;html=1;align=center;verticalAlign=middle;resizable=0;points=[];autosize=1;strokeColor=none;fillColor=none;textShadow=1;" parent="9seqvZQqqgPPie_HJ70S-1" vertex="1">
          <mxGeometry x="320" y="790" width="120" height="60" as="geometry" />
        </mxCell>
        <mxCell id="tLKNI8qHFX3cuUReKvDi-50" value="&lt;b&gt;Port LAN&lt;/b&gt;" style="text;strokeColor=none;align=left;fillColor=none;html=1;verticalAlign=middle;whiteSpace=wrap;rounded=0;textShadow=1;" parent="9seqvZQqqgPPie_HJ70S-1" vertex="1">
          <mxGeometry x="420" y="90" width="60" height="30" as="geometry" />
        </mxCell>
        <mxCell id="tLKNI8qHFX3cuUReKvDi-51" value="&lt;b&gt;Port WAN&lt;/b&gt;" style="text;strokeColor=none;align=left;fillColor=none;html=1;verticalAlign=middle;whiteSpace=wrap;rounded=0;textShadow=1;" parent="9seqvZQqqgPPie_HJ70S-1" vertex="1">
          <mxGeometry x="420" y="120" width="60" height="30" as="geometry" />
        </mxCell>
        <mxCell id="tLKNI8qHFX3cuUReKvDi-53" value="&lt;b&gt;Akses SSH&lt;/b&gt;" style="text;strokeColor=none;align=left;fillColor=none;html=1;verticalAlign=middle;whiteSpace=wrap;rounded=0;textShadow=1;" parent="9seqvZQqqgPPie_HJ70S-1" vertex="1">
          <mxGeometry x="420" y="150" width="70" height="30" as="geometry" />
        </mxCell>
        <mxCell id="9seqvZQqqgPPie_HJ70S-2" value="" style="group" vertex="1" connectable="0" parent="9seqvZQqqgPPie_HJ70S-1">
          <mxGeometry x="90" y="90" width="320" height="781" as="geometry" />
        </mxCell>
        <mxCell id="tLKNI8qHFX3cuUReKvDi-44" value="" style="shape=link;html=1;rounded=0;textShadow=1;" parent="9seqvZQqqgPPie_HJ70S-2" source="tLKNI8qHFX3cuUReKvDi-47" edge="1">
          <mxGeometry width="100" relative="1" as="geometry">
            <mxPoint x="100" y="691" as="sourcePoint" />
            <mxPoint x="200" y="691" as="targetPoint" />
          </mxGeometry>
        </mxCell>
        <mxCell id="tLKNI8qHFX3cuUReKvDi-46" value="" style="shape=link;html=1;rounded=0;textShadow=1;" parent="9seqvZQqqgPPie_HJ70S-2" target="tLKNI8qHFX3cuUReKvDi-45" edge="1">
          <mxGeometry width="100" relative="1" as="geometry">
            <mxPoint x="100" y="691" as="sourcePoint" />
            <mxPoint x="200" y="691" as="targetPoint" />
          </mxGeometry>
        </mxCell>
        <mxCell id="tLKNI8qHFX3cuUReKvDi-33" value="" style="endArrow=none;html=1;rounded=0;exitX=0.479;exitY=0.249;exitDx=0;exitDy=0;edgeStyle=orthogonalEdgeStyle;exitPerimeter=0;textShadow=1;" parent="9seqvZQqqgPPie_HJ70S-2" source="tLKNI8qHFX3cuUReKvDi-25" target="tLKNI8qHFX3cuUReKvDi-21" edge="1">
          <mxGeometry width="50" height="50" relative="1" as="geometry">
            <mxPoint x="10" y="604" as="sourcePoint" />
            <mxPoint x="130" y="433" as="targetPoint" />
            <Array as="points">
              <mxPoint x="10" y="540" />
              <mxPoint x="130" y="540" />
            </Array>
          </mxGeometry>
        </mxCell>
        <mxCell id="tLKNI8qHFX3cuUReKvDi-38" value="" style="endArrow=none;html=1;rounded=0;entryX=0.5;entryY=0;entryDx=0;entryDy=0;entryPerimeter=0;textShadow=1;" parent="9seqvZQqqgPPie_HJ70S-2" source="tLKNI8qHFX3cuUReKvDi-14" target="tLKNI8qHFX3cuUReKvDi-37" edge="1">
          <mxGeometry width="50" height="50" relative="1" as="geometry">
            <mxPoint x="145" y="80" as="sourcePoint" />
            <mxPoint x="145" y="272" as="targetPoint" />
          </mxGeometry>
        </mxCell>
        <mxCell id="tLKNI8qHFX3cuUReKvDi-18" value="" style="endArrow=none;html=1;rounded=0;entryX=0.5;entryY=0;entryDx=0;entryDy=0;entryPerimeter=0;textShadow=1;" parent="9seqvZQqqgPPie_HJ70S-2" source="tLKNI8qHFX3cuUReKvDi-37" target="tLKNI8qHFX3cuUReKvDi-17" edge="1">
          <mxGeometry width="50" height="50" relative="1" as="geometry">
            <mxPoint x="146" y="230" as="sourcePoint" />
            <mxPoint x="146" y="400" as="targetPoint" />
          </mxGeometry>
        </mxCell>
        <mxCell id="tLKNI8qHFX3cuUReKvDi-35" value="" style="rounded=1;whiteSpace=wrap;html=1;dashed=1;strokeWidth=2;perimeterSpacing=10;glass=0;shadow=0;movable=1;resizable=1;rotatable=1;deletable=1;editable=1;locked=0;connectable=1;textShadow=1;" parent="9seqvZQqqgPPie_HJ70S-2" vertex="1">
          <mxGeometry x="45" width="200" height="168" as="geometry" />
        </mxCell>
        <mxCell id="tLKNI8qHFX3cuUReKvDi-16" value="" style="endArrow=none;html=1;rounded=0;entryX=0.5;entryY=0;entryDx=0;entryDy=0;entryPerimeter=0;textShadow=1;" parent="9seqvZQqqgPPie_HJ70S-2" source="tLKNI8qHFX3cuUReKvDi-17" target="tLKNI8qHFX3cuUReKvDi-11" edge="1">
          <mxGeometry width="50" height="50" relative="1" as="geometry">
            <mxPoint x="150" y="240" as="sourcePoint" />
            <mxPoint x="150" y="390" as="targetPoint" />
          </mxGeometry>
        </mxCell>
        <mxCell id="tLKNI8qHFX3cuUReKvDi-10" value="" style="endArrow=none;html=1;rounded=0;edgeStyle=orthogonalEdgeStyle;textShadow=1;" parent="9seqvZQqqgPPie_HJ70S-2" edge="1">
          <mxGeometry width="50" height="50" relative="1" as="geometry">
            <mxPoint x="290" y="610" as="sourcePoint" />
            <mxPoint x="170" y="433" as="targetPoint" />
            <Array as="points">
              <mxPoint x="290" y="540" />
              <mxPoint x="170" y="540" />
            </Array>
          </mxGeometry>
        </mxCell>
        <mxCell id="tLKNI8qHFX3cuUReKvDi-7" value="" style="endArrow=none;html=1;rounded=0;exitX=0.479;exitY=0.249;exitDx=0;exitDy=0;edgeStyle=orthogonalEdgeStyle;exitPerimeter=0;textShadow=1;" parent="9seqvZQqqgPPie_HJ70S-2" source="tLKNI8qHFX3cuUReKvDi-21" edge="1">
          <mxGeometry width="50" height="50" relative="1" as="geometry">
            <mxPoint x="130" y="683" as="sourcePoint" />
            <mxPoint x="130" y="433" as="targetPoint" />
            <Array as="points" />
          </mxGeometry>
        </mxCell>
        <mxCell id="tLKNI8qHFX3cuUReKvDi-32" value="" style="rounded=1;whiteSpace=wrap;html=1;dashed=1;strokeWidth=2;perimeterSpacing=10;glass=0;shadow=0;movable=1;resizable=1;rotatable=1;deletable=1;editable=1;locked=0;connectable=1;textShadow=1;" parent="9seqvZQqqgPPie_HJ70S-2" vertex="1">
          <mxGeometry x="45.5" y="283" width="200" height="168" as="geometry" />
        </mxCell>
        <mxCell id="tLKNI8qHFX3cuUReKvDi-24" value="" style="rounded=0;whiteSpace=wrap;html=1;fillColor=#FFFF33;strokeColor=none;textShadow=1;" parent="9seqvZQqqgPPie_HJ70S-2" vertex="1">
          <mxGeometry x="280" y="602" width="20" height="10" as="geometry" />
        </mxCell>
        <mxCell id="tLKNI8qHFX3cuUReKvDi-23" value="" style="rounded=0;whiteSpace=wrap;html=1;fillColor=#FFFF33;strokeColor=none;textShadow=1;" parent="9seqvZQqqgPPie_HJ70S-2" vertex="1">
          <mxGeometry x="160" y="452" width="20" height="10" as="geometry" />
        </mxCell>
        <mxCell id="tLKNI8qHFX3cuUReKvDi-17" value="" style="rounded=0;whiteSpace=wrap;html=1;fillColor=#FF3333;strokeColor=none;textShadow=1;" parent="9seqvZQqqgPPie_HJ70S-2" vertex="1">
          <mxGeometry x="134.5" y="272" width="20" height="10" as="geometry" />
        </mxCell>
        <mxCell id="tLKNI8qHFX3cuUReKvDi-11" value="" style="fontColor=#0066CC;verticalAlign=top;verticalLabelPosition=bottom;labelPosition=center;align=center;html=1;outlineConnect=0;fillColor=#CCCCCC;strokeColor=#6881B3;gradientColor=none;gradientDirection=north;strokeWidth=2;shape=mxgraph.networks.router;textShadow=1;" parent="9seqvZQqqgPPie_HJ70S-2" vertex="1">
          <mxGeometry x="78" y="330" width="135" height="40" as="geometry" />
        </mxCell>
        <mxCell id="tLKNI8qHFX3cuUReKvDi-13" value="ROUTER TOTOLINK&amp;nbsp;&lt;div&gt;&lt;b&gt;IP: 192.168.20.1&lt;/b&gt;&lt;/div&gt;" style="text;html=1;align=center;verticalAlign=middle;resizable=0;points=[];autosize=1;strokeColor=none;fillColor=none;textShadow=1;" parent="9seqvZQqqgPPie_HJ70S-2" vertex="1">
          <mxGeometry x="78" y="380" width="140" height="40" as="geometry" />
        </mxCell>
        <mxCell id="tLKNI8qHFX3cuUReKvDi-14" value="" style="fontColor=#0066CC;verticalAlign=top;verticalLabelPosition=bottom;labelPosition=center;align=center;html=1;outlineConnect=0;fillColor=#CCCCCC;strokeColor=#6881B3;gradientColor=none;gradientDirection=north;strokeWidth=2;shape=mxgraph.networks.router;textShadow=1;" parent="9seqvZQqqgPPie_HJ70S-2" vertex="1">
          <mxGeometry x="77" y="40" width="135" height="40" as="geometry" />
        </mxCell>
        <mxCell id="tLKNI8qHFX3cuUReKvDi-15" value="ROUTER Staging&amp;nbsp;&lt;div&gt;&lt;b&gt;IP: 192.168.0.1&lt;/b&gt;&lt;/div&gt;" style="text;html=1;align=center;verticalAlign=middle;resizable=0;points=[];autosize=1;strokeColor=none;fillColor=none;textShadow=1;" parent="9seqvZQqqgPPie_HJ70S-2" vertex="1">
          <mxGeometry x="84.5" y="100" width="120" height="40" as="geometry" />
        </mxCell>
        <mxCell id="tLKNI8qHFX3cuUReKvDi-25" value="" style="rounded=0;whiteSpace=wrap;html=1;fillColor=#FFFF33;strokeColor=none;textShadow=1;" parent="9seqvZQqqgPPie_HJ70S-2" vertex="1">
          <mxGeometry y="602" width="20" height="10" as="geometry" />
        </mxCell>
        <mxCell id="tLKNI8qHFX3cuUReKvDi-21" value="" style="rounded=0;whiteSpace=wrap;html=1;fillColor=#FFFF33;strokeColor=none;textShadow=1;" parent="9seqvZQqqgPPie_HJ70S-2" vertex="1">
          <mxGeometry x="120.5" y="452" width="20" height="10" as="geometry" />
        </mxCell>
        <mxCell id="tLKNI8qHFX3cuUReKvDi-37" value="" style="rounded=0;whiteSpace=wrap;html=1;fillColor=#FFFF33;strokeColor=none;textShadow=1;" parent="9seqvZQqqgPPie_HJ70S-2" vertex="1">
          <mxGeometry x="135.5" y="169" width="20" height="10" as="geometry" />
        </mxCell>
        <mxCell id="tLKNI8qHFX3cuUReKvDi-40" value="" style="rounded=0;whiteSpace=wrap;html=1;fillColor=#FFFF33;strokeColor=none;textShadow=1;" parent="9seqvZQqqgPPie_HJ70S-2" vertex="1">
          <mxGeometry x="300" y="10" width="20" height="10" as="geometry" />
        </mxCell>
        <mxCell id="tLKNI8qHFX3cuUReKvDi-41" value="" style="rounded=0;whiteSpace=wrap;html=1;fillColor=#FF3333;strokeColor=none;textShadow=1;" parent="9seqvZQqqgPPie_HJ70S-2" vertex="1">
          <mxGeometry x="300" y="40" width="20" height="10" as="geometry" />
        </mxCell>
        <mxCell id="tLKNI8qHFX3cuUReKvDi-42" value="" style="rounded=0;whiteSpace=wrap;html=1;fillColor=#FF3333;strokeColor=none;textShadow=1;" parent="9seqvZQqqgPPie_HJ70S-2" vertex="1">
          <mxGeometry x="280" y="602" width="20" height="10" as="geometry" />
        </mxCell>
        <mxCell id="tLKNI8qHFX3cuUReKvDi-45" value="" style="rounded=0;whiteSpace=wrap;html=1;fillColor=#33FF33;strokeColor=none;direction=south;textShadow=1;" parent="9seqvZQqqgPPie_HJ70S-2" vertex="1">
          <mxGeometry x="110.5" y="681.5" width="10" height="20" as="geometry" />
        </mxCell>
        <mxCell id="tLKNI8qHFX3cuUReKvDi-48" value="" style="shape=link;html=1;rounded=0;width=10;strokeWidth=2;dashed=1;strokeColor=#33FF33;textShadow=1;" parent="9seqvZQqqgPPie_HJ70S-2" source="tLKNI8qHFX3cuUReKvDi-45" target="tLKNI8qHFX3cuUReKvDi-47" edge="1">
          <mxGeometry width="100" relative="1" as="geometry">
            <mxPoint x="121" y="691" as="sourcePoint" />
            <mxPoint x="200" y="691" as="targetPoint" />
          </mxGeometry>
        </mxCell>
        <mxCell id="tLKNI8qHFX3cuUReKvDi-47" value="" style="rounded=0;whiteSpace=wrap;html=1;fillColor=#33FF33;strokeColor=none;direction=south;textShadow=1;" parent="9seqvZQqqgPPie_HJ70S-2" vertex="1">
          <mxGeometry x="179" y="681.5" width="10" height="20" as="geometry" />
        </mxCell>
        <mxCell id="tLKNI8qHFX3cuUReKvDi-49" value="" style="rounded=0;whiteSpace=wrap;html=1;fillColor=#FFFF33;strokeColor=none;textShadow=1;" parent="9seqvZQqqgPPie_HJ70S-2" vertex="1">
          <mxGeometry x="280" y="771" width="20" height="10" as="geometry" />
        </mxCell>
        <mxCell id="tLKNI8qHFX3cuUReKvDi-52" value="" style="rounded=0;whiteSpace=wrap;html=1;fillColor=#33FF33;strokeColor=none;direction=west;textShadow=1;" parent="9seqvZQqqgPPie_HJ70S-2" vertex="1">
          <mxGeometry x="300" y="70" width="20" height="10" as="geometry" />
        </mxCell>
        <mxCell id="9seqvZQqqgPPie_HJ70S-4" value="&lt;b style=&quot;background-color: transparent; color: light-dark(rgb(0, 0, 0), rgb(255, 255, 255)); line-height: 10%;&quot;&gt;IP: 192.168.0.100&lt;/b&gt;" style="text;html=1;align=center;verticalAlign=middle;resizable=0;points=[];autosize=1;strokeColor=none;fillColor=none;textShadow=1;" vertex="1" parent="9seqvZQqqgPPie_HJ70S-2">
          <mxGeometry x="140" y="210" width="120" height="30" as="geometry" />
        </mxCell>
      </root>
    </mxGraphModel>
  </diagram>
</mxfile>
